Coordinates
version=1
nRows=13
nColumns=36
inDegrees=yes

Units are S.I. units (second, meters, Newtons, ...)
If the header above contains a line with 'inDegrees', this indicates whether rotational values are in degrees (yes) or radians (no).

endheader
time	pelvis_tilt	pelvis_list	pelvis_rotation	pelvis_tx	pelvis_ty	pelvis_tz	hip_flexion_r	hip_adduction_r	hip_rotation_r	knee_angle_r	knee_angle_r_beta	ankle_angle_r	subtalar_angle_r	mtp_angle_r	hip_flexion_l	hip_adduction_l	hip_rotation_l	knee_angle_l	knee_angle_l_beta	ankle_angle_l	subtalar_angle_l	mtp_angle_l	lumbar_extension	lumbar_bending	lumbar_rotation	arm_flex_r	arm_add_r	arm_rot_r	elbow_flex_r	pro_sup_r	arm_flex_l	arm_add_l	arm_rot_l	elbow_flex_l	pro_sup_l
      1.05000000	     -2.78854201	      0.02047207	     -0.69803024	      1.09547910	      0.95331134	     -0.23583659	     24.34377432	      2.18567762	      2.69164922	     11.31397579	      0.19746613	     -2.10428289	    -15.07298662	     -7.38611619	     -8.51119191	      4.01982194	     -1.95965182	      3.91172070	      0.06827241	     10.20828437	     -3.04038805	     -7.38611619	    -10.30010159	    -10.82971031	     -2.50861842	     -0.49562714	     -5.24608481	      0.18602515	     31.04784192	    110.90607457	      8.83198080	     -8.62734418	      2.73562581	     27.11980656	    105.98673231
      1.06000000	     -2.47205958	      0.01430623	     -0.47035317	      1.10808405	      0.95177101	     -0.23748223	     23.66434829	      2.12266130	      2.84963618	      8.19222412	      0.14298128	     -1.62609412	    -13.05860542	     -7.38872059	    -10.10081718	      4.10075816	     -2.17255656	      3.17115744	      0.05534714	     10.47303584	     -2.39917982	     -7.38872059	    -10.45847882	    -10.17394564	     -2.80499561	     -0.43695372	     -5.20262816	     -0.72993572	     30.83343045	    110.88995477	      8.70467063	     -8.71207745	      3.77774129	     27.81897252	    106.13998415
      1.07000000	     -2.49338095	      0.06135932	     -0.22273133	      1.12063864	      0.94954359	     -0.23906134	     23.46842912	      2.00614216	      2.86447673	      5.50274559	      0.09604103	     -0.88744678	    -10.97563466	     -7.39221461	    -11.17392809	      4.19259522	     -2.40391560	      2.72945364	      0.04763795	     10.82761387	     -1.47992953	     -7.39221461	    -10.19726211	     -9.56869260	     -2.97289481	     -0.59317380	     -5.13344030	     -1.87848383	     30.80011096	    110.89187988	      8.64512976	     -8.78069731	      5.02054347	     28.29119365	    106.28196666
      1.08000000	     -2.60984884	      0.16019339	     -0.01340002	      1.13319719	      0.94702902	     -0.24049877	     23.54881638	      1.85233234	      2.49812267	      3.38577851	      0.05909298	      0.20345200	     -8.54662662	     -7.39995387	    -12.03044685	      4.30555857	     -2.89369706	      2.51609827	      0.04391420	     11.44307773	     -0.15267054	     -7.39995387	     -9.81764023	     -9.04781580	     -2.92633670	     -0.94284884	     -4.96514719	     -3.67774314	     31.07219553	    111.01400541	      8.83569695	     -8.88023011	      6.90616598	     28.34830173	    106.34844757
      1.09000000	     -2.89288038	      0.23619568	      0.16092028	      1.14575011	      0.94420130	     -0.24176080	     23.87196264	      1.80501904	      2.42670870	      1.66420880	      0.02904592	      0.53444610	     -7.78702039	     -7.40084905	    -12.69417128	      4.39873236	     -2.91509558	      2.32849896	      0.04063997	     11.50777655	      0.11187919	     -7.40084905	     -9.22301672	     -8.53751337	     -3.13096055	     -1.05028515	     -4.97064109	     -3.98392261	     30.88050887	    110.92619673	      8.68662440	     -8.86800887	      7.28885369	     28.73148056	    106.37525852
      1.10000000	     -2.90947527	      0.31605639	      0.34571439	      1.15846672	      0.94173772	     -0.24301841	     24.25395560	      1.72002898	      0.91740153	      0.98790818	      0.01724225	      2.49110280	     -4.52268571	     -7.40607570	    -13.57263674	      4.44703827	     -3.37179117	      2.28941525	      0.03995783	     11.95544047	      1.31967791	     -7.40607570	     -8.99413578	     -7.99152699	     -3.25472206	     -1.13704820	     -4.76262614	     -5.59777282	     30.79625432	    110.91886430	      8.61741812	     -9.10639916	      8.97245247	     29.30941344	    106.55243468
      1.11000000	     -3.02072023	      0.39384395	      0.47661719	      1.17123815	      0.93914755	     -0.24410376	     24.76786915	      1.70712349	     -0.23164519	      0.70081360	      0.01223150	      3.79482122	     -2.60778119	     -7.41088322	    -14.29518158	      4.49219200	     -3.59084692	      2.35225413	      0.04105458	     12.16719036	      2.02883431	     -7.41088322	     -8.64859628	     -7.47748251	     -3.29480204	     -1.27095007	     -4.61859720	     -6.79367885	     30.71239079	    110.97224505	      8.62631644	     -9.21433747	     10.15129432	     29.61745777	    106.64798820
      1.12000000	     -3.12337457	      0.42570032	      0.61721968	      1.18424715	      0.93661524	     -0.24509641	     25.17997982	      1.76440671	     -1.11472053	      0.61541003	      0.01074093	      4.71361654	     -1.53688835	     -7.41463911	    -14.96377544	      4.46267603	     -3.70856628	      2.54922219	      0.04449232	     12.26707650	      2.59122071	     -7.41463911	     -8.29470743	     -6.91685758	     -3.39831768	     -1.35676324	     -4.48148332	     -7.83383110	     30.53612341	    110.97158920	      8.52965480	     -9.32878334	     11.12661814	     30.02470769	    106.75411743
      1.13000000	     -3.17022462	      0.53848355	      0.65974549	      1.19746349	      0.93421804	     -0.24595779	     25.39215323	      1.79204038	     -1.19063406	      0.61820354	      0.01078969	      4.82244503	     -1.59757300	     -7.41476794	    -15.66285977	      4.54911642	     -3.66163813	      2.82310690	      0.04927251	     12.17527038	      2.65153649	     -7.41476794	     -7.97318790	     -6.47402157	     -3.45834058	     -1.47365505	     -4.53221677	     -7.91076473	     30.45645233	    110.96085533	      8.45370079	     -9.23287990	     11.20806632	     30.09421759	    106.77081356
      1.14000000	     -3.09427214	      0.26747859	      0.87836223	      1.21112567	      0.93214556	     -0.24683663	     25.31644251	      2.17643994	     -1.82781802	      0.74374987	      0.01298088	      5.37056084	     -1.65798616	     -7.42092100	    -16.31178812	      4.09720416	     -4.06104984	      3.46015801	      0.06039115	     12.34013991	      3.73346568	     -7.42092100	     -7.82806414	     -5.53491188	     -3.42863351	     -1.69151449	     -4.21870707	    -10.19937031	     30.53471169	    110.92678491	      8.46604497	     -9.39831805	     12.91903075	     30.39332450	    106.97443347
      1.15000000	     -3.07048432	      0.29197545	      0.94104786	      1.22506919	      0.93005049	     -0.24764992	     25.22259512	      2.28314834	     -1.70807065	      1.03601699	      0.01808191	      5.31428615	     -1.74544662	     -7.42105196	    -17.00763292	      4.05695692	     -3.90563119	      3.91768595	      0.06837652	     12.16864071	      3.78441607	     -7.42105196	     -7.50884194	     -4.99194848	     -3.47575752	     -1.89453045	     -4.28892963	    -10.27715244	     30.41018214	    110.91590166	      8.27284127	     -9.28123904	     13.00229604	     30.44085167	    106.98923482
      1.16000000	     -2.96209507	     -0.10696913	      1.08147977	      1.23893540	      0.92824836	     -0.24826555	     24.97202273	      2.88294481	     -1.25346564	      1.47471669	      0.02573866	      3.83994495	     -4.38617087	     -7.42464229	    -17.44973186	      3.45640252	     -4.26871040	      5.00109296	      0.08728554	     11.97233444	      4.17741428	     -7.42464229	     -7.41674716	     -3.89925274	     -3.52305460	     -1.86471774	     -4.12188367	    -11.88070826	     30.17586932	    110.87560408	      8.07543004	     -9.38912427	     14.00292274	     31.02597378	    107.15563002
      1.17000000	     -2.92158109	     -0.36402014	      1.07959118	      1.25310853	      0.92644216	     -0.24872937	     24.84534352	      3.36329790	     -0.75257574	      2.23694552	      0.03904206	      2.36490006	     -6.30993353	     -7.42855001	    -17.80860408	      3.05548278	     -4.59167395	      6.12315323	      0.10686918	     11.68383760	      4.38171456	     -7.42855001	     -7.14529001	     -3.00278807	     -3.34341685	     -2.10705734	     -4.09863789	    -12.86279878	     30.26721575	    110.97460348	      7.98370081	     -9.24556009	     14.49365569	     30.93380082	    107.18797077
